# xmcd
#
# Track frame offsets: 
#        150
#        13092
#        33057
#        49460
#        64307
#        87497
#        102197
#        117507
#        145622
#        160157
#        186070
#        206932
#        235907
#        261827
#        284567
#        302180
#
# Disc length: 4358 seconds
#
# Revision: 3
# Processed by: cddbd v1.5.2PL0 Copyright (c) Steve Scherf et al.
# Submitted via: ExactAudioCopyFreeDBPlugin 1.0
#
DISCID=ed110410
DTITLE=Rolf Wikström - Bortom synd och skam -  Blås ut mitt månljus
DYEAR=1984
DGENRE=Blues
TTITLE0=It's Gonna Work Out Fine
TTITLE1=Halvfart
TTITLE2=Ring mitt jobb
TTITLE3=Jag är bluesman
TTITLE4=En valsmelodi
TTITLE5=Gud på tunnelbanan
TTITLE6=Döden är ingen trött gammal man
TTITLE7=Bortom synd och skam
TTITLE8=Du kommer att ångra dig
TTITLE9=Någon som skriker
TTITLE10=Du äe så djävla vacker
TTITLE11=Blås ut mitt månljus
TTITLE12=Kvinna, kvinna
TTITLE13=Jag ger fan i musiken
TTITLE14=Bädda med rena lakan
TTITLE15=Gråta över spilld mjölk
EXTD=
EXTT0=
EXTT1=
EXTT2=
EXTT3=
EXTT4=
EXTT5=
EXTT6=
EXTT7=
EXTT8=
EXTT9=
EXTT10=
EXTT11=
EXTT12=
EXTT13=
EXTT14=
EXTT15=
PLAYORDER=
